<svg viewBox="0 0 462 220" fill="none" xmlns="http://www.w3.org/2000/svg">
<path d="M0 0H462V212C462 216.418 458.418 220 454 220H8.00001C3.58173 220 0 216.418 0 212V0Z" fill="white"/>
<rect x="189" y="34" width="125" height="152" rx="12" fill="#F6F6F7"/>
<rect x="339" y="122" width="50" height="23" rx="11.5" fill="#E5E6E8"/>
<rect x="339" y="102" width="81" height="5" rx="2.5" fill="#F2F2F3"/>
<rect x="339" y="87" width="97" height="5" rx="2.5" fill="#F2F2F3"/>
<rect x="27" y="54" width="100" height="23" rx="11.5" fill="#D9DADF"/>
<rect x="27" y="86" width="70" height="23" rx="11.5" fill="#D9DADF"/>
<rect x="27" y="133" width="107" height="5" rx="2.5" fill="#F2F2F3"/>
<rect x="27" y="147" width="107" height="5" rx="2.5" fill="#F2F2F3"/>
<rect x="27" y="161" width="88" height="5" rx="2.5" fill="#F2F2F3"/>
</svg>
