<svg xmlns="http://www.w3.org/2000/svg" fill="none" viewBox="0 0 465 220"><path fill="#fff" d="M0 0h465v212a8 8 0 0 1-8 8H8a8 8 0 0 1-8-8z"/><rect width="133" height="133" x="291" y="44" fill="#F6F6F7" rx="12"/><rect width="191" height="23" x="40" y="55" fill="#D9DADF" rx="11.5"/><rect width="150" height="23" x="40" y="89" fill="#D9DADF" rx="11.5"/><rect width="38" height="23" x="272" y="115" fill="#E5E6E8" rx="11.5"/><rect width="38" height="23" x="364" y="138" fill="#E5E6E8" rx="11.5"/><rect width="38" height="23" x="399" y="66" fill="#E5E6E8" rx="11.5"/><rect width="191" height="5" x="40" y="136" fill="#F2F2F3" rx="2.5"/><rect width="191" height="5" x="40" y="150" fill="#F2F2F3" rx="2.5"/><rect width="170" height="5" x="40" y="164" fill="#F2F2F3" rx="2.5"/></svg>