<svg xmlns="http://www.w3.org/2000/svg" fill="none" viewBox="0 0 462 220"><path fill="#fff" d="M0 0h462v212a8 8 0 0 1-8 8H8a8 8 0 0 1-8-8z"/><rect width="125" height="152" x="189" y="34" fill="#F6F6F7" rx="12"/><rect width="50" height="23" x="339" y="122" fill="#E5E6E8" rx="11.5"/><rect width="81" height="5" x="339" y="102" fill="#F2F2F3" rx="2.5"/><rect width="97" height="5" x="339" y="87" fill="#F2F2F3" rx="2.5"/><rect width="100" height="23" x="27" y="54" fill="#D9DADF" rx="11.5"/><rect width="70" height="23" x="27" y="86" fill="#D9DADF" rx="11.5"/><rect width="107" height="5" x="27" y="133" fill="#F2F2F3" rx="2.5"/><rect width="107" height="5" x="27" y="147" fill="#F2F2F3" rx="2.5"/><rect width="88" height="5" x="27" y="161" fill="#F2F2F3" rx="2.5"/></svg>